<?xml version="1.0" encoding="utf-8"?>
<!-- Generator: Adobe Illustrator 22.1.0, SVG Export Plug-In . SVG Version: 6.00 Build 0)  -->
<svg version="1.1" id="Layer_1" xmlns="http://www.w3.org/2000/svg" xmlns:xlink="http://www.w3.org/1999/xlink" x="0px" y="0px"
	 viewBox="0 0 50 50" style="enable-background:new 0 0 50 50;" xml:space="preserve">
<style type="text/css">
	.st0{fill:#32BEA6;}
	.st1{fill:#FFFFFF;}
</style>
<path class="st0" d="M0,25C0,11.2,11.2,0,25,0c13.8,0,25,11.2,25,25c0,13.8-11.2,25-25,25C11.2,50,0,38.8,0,25z"/>
<g>
	<path class="st1" d="M43.2,17.3c-1,0-2.1,0-3.1,0c-2.3-5.3-6.9-9.1-12.8-10c-6.5-1-12.7,2-16.4,7.3c-1.6,2.4,2.2,4.6,3.8,2.2
		c5.1-7.3,15.9-6.6,20.3,0.5c-1,0-1.9,0-2.9,0c-0.3,0-0.5,0.1-0.6,0.3c-0.2,0.2-0.3,0.5-0.1,0.8c1.8,2.8,3.7,5.7,5.5,8.5
		c0.3,0.5,1,0.5,1.3,0c1.8-2.9,3.6-5.7,5.5-8.6C44.1,18,43.7,17.3,43.2,17.3z"/>
	<path class="st1" d="M35.3,33c-5,7.2-15.7,6.6-20.2-0.3c0.9,0,1.8,0,2.8,0c0.3,0,0.5-0.1,0.6-0.3c0.2-0.2,0.3-0.5,0.1-0.8
		c-1.8-2.8-3.7-5.7-5.5-8.5c-0.3-0.5-1-0.5-1.3,0c-1.8,2.9-3.6,5.7-5.5,8.6c-0.3,0.5,0.1,1.1,0.6,1.1c1.1,0,2.2,0,3.2,0
		c2.4,5.2,6.9,8.9,12.7,9.8c6.5,1,12.7-2,16.4-7.3C40.8,32.8,36.9,30.6,35.3,33z"/>
</g>
</svg>
